<svg width="20" height="24" viewBox="0 0 20 24" fill="none" xmlns="http://www.w3.org/2000/svg">
<path d="M9.96929 13.549C8.57464 13.549 7.23711 12.995 6.25094 12.0088C5.26477 11.0226 4.71074 9.68509 4.71074 8.29043H6.81416C6.81416 9.12722 7.14658 9.92974 7.73828 10.5214C8.32998 11.1131 9.1325 11.4456 9.96929 11.4456C10.8061 11.4456 11.6086 11.1131 12.2003 10.5214C12.792 9.92974 13.1244 9.12722 13.1244 8.29043H15.2278C15.2278 9.68509 14.6738 11.0226 13.6876 12.0088C12.7015 12.995 11.3639 13.549 9.96929 13.549V13.549ZM9.96929 3.03189C10.8061 3.03189 11.6086 3.3643 12.2003 3.956C12.792 4.5477 13.1244 5.35022 13.1244 6.18701H6.81416C6.81416 5.35022 7.14658 4.5477 7.73828 3.956C8.32998 3.3643 9.1325 3.03189 9.96929 3.03189V3.03189ZM17.3313 6.18701H15.2278C15.2278 5.49645 15.0918 4.81265 14.8276 4.17465C14.5633 3.53666 14.1759 2.95696 13.6876 2.46866C13.1993 1.98036 12.6196 1.59302 11.9816 1.32875C11.3437 1.06448 10.6599 0.928467 9.96929 0.928467C8.57464 0.928467 7.23711 1.48249 6.25094 2.46866C5.26477 3.45483 4.71074 4.79236 4.71074 6.18701H2.60733C1.43993 6.18701 0.503906 7.12303 0.503906 8.29043V20.9109C0.503906 21.4688 0.725516 22.0038 1.11998 22.3983C1.51445 22.7928 2.04946 23.0144 2.60733 23.0144H17.3313C17.8891 23.0144 18.4241 22.7928 18.8186 22.3983C19.2131 22.0038 19.4347 21.4688 19.4347 20.9109V8.29043C19.4347 7.73257 19.2131 7.19756 18.8186 6.80309C18.4241 6.40862 17.8891 6.18701 17.3313 6.18701V6.18701Z" fill="#A0A0A0"/>
</svg>
