<svg width="23" height="24" viewBox="0 0 23 24" fill="none" xmlns="http://www.w3.org/2000/svg">
<path d="M11.872 0.883057C5.76107 0.883057 0.806152 5.83797 0.806152 11.9489C0.806152 18.0598 5.76107 23.0147 11.872 23.0147C17.9829 23.0147 22.9378 18.0598 22.9378 11.9489C22.9378 5.83797 17.9829 0.883057 11.872 0.883057ZM12.6624 17.2842C12.6624 17.3929 12.5735 17.4818 12.4648 17.4818H11.2792C11.1705 17.4818 11.0815 17.3929 11.0815 17.2842V10.5656C11.0815 10.457 11.1705 10.368 11.2792 10.368H12.4648C12.5735 10.368 12.6624 10.457 12.6624 10.5656V17.2842ZM11.872 8.78721C11.5617 8.78087 11.2663 8.65318 11.0491 8.43152C10.8319 8.20986 10.7103 7.91191 10.7103 7.60159C10.7103 7.29126 10.8319 6.99331 11.0491 6.77165C11.2663 6.54999 11.5617 6.4223 11.872 6.41596C12.1822 6.4223 12.4776 6.54999 12.6948 6.77165C12.912 6.99331 13.0336 7.29126 13.0336 7.60159C13.0336 7.91191 12.912 8.20986 12.6948 8.43152C12.4776 8.65318 12.1822 8.78087 11.872 8.78721Z" fill="#A0A0A0"/>
</svg>
