<svg width="17" height="17" viewBox="0 0 17 17" fill="none" xmlns="http://www.w3.org/2000/svg">
<path fill-rule="evenodd" clip-rule="evenodd" d="M7.65 1.7C4.36391 1.7 1.7 4.36391 1.7 7.65C1.7 10.9361 4.36391 13.6 7.65 13.6C9.25305 13.6 10.708 12.9661 11.7779 11.9352C11.8003 11.9061 11.8248 11.8781 11.8515 11.8515C11.8781 11.8248 11.9061 11.8003 11.9352 11.7779C12.9661 10.708 13.6 9.25305 13.6 7.65C13.6 4.36391 10.9361 1.7 7.65 1.7ZM13.6271 12.425C14.674 11.1163 15.3 9.45626 15.3 7.65C15.3 3.42502 11.875 0 7.65 0C3.42502 0 0 3.42502 0 7.65C0 11.875 3.42502 15.3 7.65 15.3C9.45626 15.3 11.1163 14.674 12.425 13.6271L15.549 16.751C15.8809 17.083 16.4191 17.083 16.751 16.751C17.083 16.4191 17.083 15.8809 16.751 15.549L13.6271 12.425Z" fill="#101010"/>
</svg>
