<svg width="375" height="33" viewBox="0 0 375 33" fill="none" xmlns="http://www.w3.org/2000/svg">
<rect x="281" y="10" width="14" height="14" rx="2" fill="#797979"/>
<path fill-rule="evenodd" clip-rule="evenodd" d="M91.4842 10.1461C92.1507 9.74488 93 10.2249 93 11.0028V22.9973C93 23.7752 92.1507 24.2553 91.4842 23.854L81.5222 17.8568C80.8765 17.4681 80.8765 16.532 81.5222 16.1433L91.4842 10.1461Z" fill="#797979"/>
<path fill-rule="evenodd" clip-rule="evenodd" d="M196 17C196 21.4183 192.418 25 188 25C183.582 25 180 21.4183 180 17C180 12.5817 183.582 9 188 9C192.418 9 196 12.5817 196 17ZM195 17C195 20.866 191.866 24 188 24C184.134 24 181 20.866 181 17C181 13.134 184.134 10 188 10C191.866 10 195 13.134 195 17ZM188 23C191.314 23 194 20.3137 194 17C194 13.6863 191.314 11 188 11C184.686 11 182 13.6863 182 17C182 20.3137 184.686 23 188 23Z" fill="#797979"/>
</svg>
