<svg width="20" height="23" viewBox="0 0 20 23" fill="none" xmlns="http://www.w3.org/2000/svg">
<path d="M19.0987 19.1364C19.0987 20.1747 18.7951 21.0654 18.1879 21.8085C17.5808 22.5516 16.8497 22.9231 15.9948 22.9231H3.54997C2.69505 22.9231 1.964 22.5516 1.35682 21.8085C0.749637 21.0654 0.446045 20.1747 0.446045 19.1364C0.446045 18.3266 0.487333 17.5621 0.56991 16.8429C0.652487 16.1236 0.805498 15.3996 1.02894 14.6709C1.25238 13.9421 1.53655 13.3181 1.88143 12.799C2.22631 12.2798 2.68291 11.8558 3.25123 11.5272C3.81956 11.1985 4.47289 11.0342 5.21122 11.0342C6.48388 12.2536 8.00427 12.8633 9.77238 12.8633C11.5405 12.8633 13.0609 12.2536 14.3335 11.0342C15.0719 11.0342 15.7252 11.1985 16.2935 11.5272C16.8619 11.8558 17.3185 12.2798 17.6633 12.799C18.0082 13.3181 18.2924 13.9421 18.5158 14.6709C18.7393 15.3996 18.8923 16.1236 18.9749 16.8429C19.0574 17.5621 19.0987 18.3266 19.0987 19.1364ZM15.3682 6.46154C15.3682 7.97623 14.8217 9.26944 13.7288 10.3412C12.6359 11.4129 11.3171 11.9487 9.77238 11.9487C8.22771 11.9487 6.90891 11.4129 5.81598 10.3412C4.72305 9.26944 4.17658 7.97623 4.17658 6.46154C4.17658 4.94685 4.72305 3.65365 5.81598 2.58194C6.90891 1.51022 8.22771 0.974365 9.77238 0.974365C11.3171 0.974365 12.6359 1.51022 13.7288 2.58194C14.8217 3.65365 15.3682 4.94685 15.3682 6.46154Z" fill="#A0A0A0"/>
</svg>
