<svg width="428" height="50" viewBox="0 0 428 50" fill="none" xmlns="http://www.w3.org/2000/svg">
<path d="M53.1954 22.3282C53.1954 23.3233 52.9342 24.2001 52.4118 24.9588L48.2887 31.1714H45.8261L48.8111 26.7871H48.5872C47.2315 26.7871 46.1184 26.3767 45.2477 25.5558C44.3895 24.7225 43.9604 23.6466 43.9604 22.3282C43.9604 21.0099 44.3895 19.9402 45.2477 19.1193C46.1184 18.286 47.2315 17.8694 48.5872 17.8694C49.9554 17.8694 51.0623 18.286 51.9081 19.1193C52.7663 19.9402 53.1954 21.0099 53.1954 22.3282ZM46.1059 22.3282C46.1059 23.0372 46.336 23.6218 46.7962 24.082C47.2688 24.5297 47.8659 24.7536 48.5872 24.7536C49.3086 24.7536 49.8994 24.5359 50.3596 24.1006C50.8198 23.6529 51.0499 23.0621 51.0499 22.3282C51.0499 21.5944 50.8198 21.0099 50.3596 20.5745C49.8994 20.1268 49.3086 19.9029 48.5872 19.9029C47.8659 19.9029 47.2688 20.1268 46.7962 20.5745C46.336 21.0099 46.1059 21.5944 46.1059 22.3282ZM54.2014 22.9999C54.2014 22.6019 54.3319 22.2723 54.5931 22.0111C54.8668 21.7375 55.2026 21.6006 55.6006 21.6006C55.9861 21.5758 56.3157 21.7126 56.5894 22.0111C56.863 22.3096 56.9998 22.6392 56.9998 22.9999C56.9998 23.3606 56.863 23.6902 56.5894 23.9887C56.2909 24.2623 55.9613 24.3991 55.6006 24.3991C55.2399 24.3991 54.9103 24.2623 54.6118 23.9887C54.3133 23.715 54.1765 23.3854 54.2014 22.9999ZM55.6006 28.5968C55.9861 28.5968 56.3157 28.7336 56.5894 29.0072C56.863 29.2809 56.9998 29.6105 56.9998 29.996C56.9998 30.3816 56.863 30.7112 56.5894 30.9848C56.3157 31.2584 55.9861 31.3953 55.6006 31.3953C55.215 31.3953 54.8854 31.2584 54.6118 30.9848C54.3382 30.7112 54.2014 30.3816 54.2014 29.996C54.2014 29.6105 54.3319 29.2809 54.5931 29.0072C54.8668 28.7336 55.2026 28.5968 55.6006 28.5968ZM66.5311 26.8244H68.0236V28.8207H66.5311V31.1714H64.3669V28.8207H57.9491V26.8244L62.4453 18.1119H64.7774L60.2812 26.8244H64.3669V23.429H66.5311V26.8244ZM67.6633 19.3246L71.096 18.1119H72.9617V31.1714H70.8162V20.4066L68.1856 21.1529L67.6633 19.3246Z" fill="#010101"/>
<path opacity="0.35" d="M373.462 19.141H392.118C394.223 19.141 395.929 20.8471 395.929 22.9518V28.4389C395.929 30.5436 394.223 32.2497 392.118 32.2497H373.462C371.357 32.2497 369.651 30.5436 369.651 28.4389V22.9518C369.651 20.8471 371.357 19.141 373.462 19.141Z" stroke="black" stroke-width="1.15789"/>
<path opacity="0.4" d="M397.605 24.0493V28.6809C398.537 28.2886 399.143 27.3761 399.143 26.3651C399.143 25.3541 398.537 24.4416 397.605 24.0493" fill="black"/>
<path d="M371.267 22.9517C371.267 21.7395 372.249 20.7568 373.461 20.7568H392.118C393.33 20.7568 394.313 21.7395 394.313 22.9517V28.4389C394.313 29.6511 393.33 30.6338 392.118 30.6338H373.461C372.249 30.6338 371.267 29.6511 371.267 28.4389V22.9517Z" fill="black"/>
<path fill-rule="evenodd" clip-rule="evenodd" d="M352.062 22.4988C354.769 22.4989 357.372 23.5606 359.334 25.4644C359.482 25.6114 359.718 25.6095 359.864 25.4603L361.276 24.0055C361.349 23.9298 361.39 23.8272 361.39 23.7205C361.389 23.6138 361.347 23.5118 361.272 23.4369C356.123 18.3999 348 18.3999 342.851 23.4369C342.776 23.5117 342.734 23.6137 342.733 23.7204C342.733 23.8272 342.774 23.9297 342.847 24.0055L344.26 25.4603C344.405 25.6098 344.642 25.6116 344.789 25.4644C346.751 23.5605 349.355 22.4988 352.062 22.4988ZM352.101 26.9817C353.588 26.9816 355.022 27.5459 356.125 28.5649C356.274 28.7095 356.509 28.7063 356.654 28.5578L358.065 27.1031C358.139 27.0268 358.18 26.9232 358.179 26.8157C358.178 26.7081 358.135 26.6055 358.059 26.5307C354.702 23.3431 349.503 23.3431 346.146 26.5307C346.07 26.6055 346.027 26.7082 346.026 26.8158C346.025 26.9234 346.066 27.0269 346.141 27.1031L347.551 28.5578C347.696 28.7063 347.931 28.7095 348.08 28.5649C349.182 27.5465 350.615 26.9823 352.101 26.9817ZM354.969 29.9122C354.971 30.0201 354.93 30.1241 354.854 30.1997L352.415 32.713C352.343 32.7869 352.246 32.8285 352.144 32.8285C352.042 32.8285 351.945 32.7869 351.873 32.713L349.433 30.1997C349.357 30.124 349.316 30.02 349.318 29.9121C349.32 29.8043 349.366 29.7021 349.445 29.6298C351.003 28.2845 353.285 28.2845 354.843 29.6298C354.921 29.7022 354.967 29.8044 354.969 29.9122Z" fill="black"/>
<path d="M325.174 22.9515C325.174 22.3454 325.666 21.8541 326.272 21.8541H327.369C327.975 21.8541 328.467 22.3454 328.467 22.9515V31.731C328.467 32.3371 327.975 32.8284 327.369 32.8284H326.272C325.666 32.8284 325.174 32.3371 325.174 31.731V22.9515Z" fill="black"/>
<path d="M330.661 20.7566C330.661 20.1505 331.153 19.6592 331.759 19.6592H332.856C333.462 19.6592 333.954 20.1505 333.954 20.7566V31.731C333.954 32.3371 333.462 32.8284 332.856 32.8284H331.759C331.153 32.8284 330.661 32.3371 330.661 31.731V20.7566Z" fill="black"/>
<path d="M319.687 26.7925C319.687 26.1864 320.178 25.6951 320.785 25.6951H321.882C322.488 25.6951 322.979 26.1864 322.979 26.7925V31.731C322.979 32.3371 322.488 32.8284 321.882 32.8284H320.785C320.178 32.8284 319.687 32.3371 319.687 31.731V26.7925Z" fill="black"/>
<path d="M314.2 29.5361C314.2 28.93 314.691 28.4387 315.297 28.4387H316.395C317.001 28.4387 317.492 28.93 317.492 29.5361V31.731C317.492 32.3371 317.001 32.8284 316.395 32.8284H315.297C314.691 32.8284 314.2 32.3371 314.2 31.731V29.5361Z" fill="black"/>
</svg>
