<svg width="375" height="25" viewBox="0 0 375 25" fill="none" xmlns="http://www.w3.org/2000/svg">
<path fill-rule="evenodd" clip-rule="evenodd" d="M307.983 6.5H306.924C306.339 6.5 305.865 7.00368 305.865 7.625V17.375C305.865 17.9963 306.339 18.5 306.924 18.5H307.983C308.568 18.5 309.042 17.9963 309.042 17.375V7.625C309.042 7.00368 308.568 6.5 307.983 6.5ZM301.983 9.125H303.042C303.626 9.125 304.1 9.62868 304.1 10.25V17.375C304.1 17.9963 303.626 18.5 303.042 18.5H301.983C301.398 18.5 300.924 17.9963 300.924 17.375V10.25C300.924 9.62868 301.398 9.125 301.983 9.125ZM298.101 11.75H297.042C296.457 11.75 295.983 12.2537 295.983 12.875V17.375C295.983 17.9963 296.457 18.5 297.042 18.5H298.101C298.685 18.5 299.159 17.9963 299.159 17.375V12.875C299.159 12.2537 298.685 11.75 298.101 11.75ZM293.159 14H292.101C291.516 14 291.042 14.5037 291.042 15.125V17.375C291.042 17.9963 291.516 18.5 292.101 18.5H293.159C293.744 18.5 294.218 17.9963 294.218 17.375V15.125C294.218 14.5037 293.744 14 293.159 14Z" fill="#170E2B"/>
<path fill-rule="evenodd" clip-rule="evenodd" d="M323.042 8.99216C325.364 8.99226 327.596 9.92402 329.279 11.5948C329.406 11.7238 329.608 11.7222 329.733 11.5912L330.944 10.3145C331.007 10.248 331.042 10.158 331.042 10.0644C331.041 9.97071 331.005 9.88114 330.941 9.81546C326.525 5.39485 319.559 5.39485 315.143 9.81546C315.079 9.88109 315.042 9.97063 315.042 10.0643C315.041 10.1579 315.076 10.248 315.139 10.3145L316.351 11.5912C316.476 11.7224 316.678 11.724 316.805 11.5948C318.488 9.92391 320.72 8.99215 323.042 8.99216ZM323.042 13.1459C324.318 13.1458 325.548 13.641 326.493 14.5353C326.621 14.6622 326.822 14.6595 326.947 14.5291L328.157 13.2524C328.22 13.1854 328.256 13.0946 328.255 13.0002C328.254 12.9058 328.217 12.8157 328.152 12.7501C325.273 9.95256 320.814 9.95256 317.935 12.7501C317.87 12.8157 317.833 12.9058 317.832 13.0003C317.831 13.0947 317.867 13.1855 317.93 13.2524L319.14 14.5291C319.264 14.6595 319.466 14.6622 319.594 14.5353C320.539 13.6416 321.768 13.1464 323.042 13.1459ZM325.465 15.9406C325.467 16.0353 325.432 16.1265 325.367 16.1929L323.274 18.3987C323.213 18.4635 323.129 18.5 323.042 18.5C322.955 18.5 322.871 18.4635 322.81 18.3987L320.717 16.1929C320.652 16.1265 320.617 16.0352 320.619 15.9405C320.621 15.8459 320.66 15.7562 320.727 15.6928C322.064 14.5121 324.021 14.5121 325.357 15.6928C325.424 15.7563 325.464 15.8459 325.465 15.9406Z" fill="#170E2B"/>
<path opacity="0.4" fill-rule="evenodd" clip-rule="evenodd" d="M339.708 7.5H356.078C356.999 7.5 357.745 8.24619 357.745 9.16667V15.8333C357.745 16.7538 356.999 17.5 356.078 17.5H339.708C338.788 17.5 338.042 16.7538 338.042 15.8333V9.16667C338.042 8.24619 338.788 7.5 339.708 7.5ZM337.042 9.16667C337.042 7.69391 338.236 6.5 339.708 6.5H356.078C357.551 6.5 358.745 7.69391 358.745 9.16667V15.8333C358.745 17.3061 357.551 18.5 356.078 18.5H339.708C338.236 18.5 337.042 17.3061 337.042 15.8333V9.16667ZM361.042 12.5C361.042 13.4245 360.525 14.2589 359.732 14.6176V10.3824C360.525 10.7411 361.042 11.5755 361.042 12.5Z" fill="#170E2B"/>
<rect x="339.015" y="8.61765" width="17.7573" height="7.76471" rx="1.33333" fill="#170E2B"/>
<path d="M17.75 7.17935V17.1667H16.1025V9.13443L13.6621 9.96158V8.60123L17.5518 7.17935H17.75ZM27.8949 15.8542V17.1667H21.223V16.0387L24.4632 12.5045C24.8187 12.1035 25.099 11.7572 25.304 11.4655C25.5091 11.1738 25.6527 10.9118 25.7347 10.6794C25.8213 10.4424 25.8646 10.2122 25.8646 9.98892C25.8646 9.67447 25.8053 9.39875 25.6869 9.16177C25.5729 8.92024 25.4043 8.73111 25.181 8.59439C24.9577 8.45311 24.6865 8.38248 24.3675 8.38248C23.9984 8.38248 23.6885 8.46223 23.4378 8.62173C23.1872 8.78124 22.998 9.00227 22.8704 9.28482C22.7428 9.56282 22.679 9.88183 22.679 10.2419H21.0316C21.0316 9.66308 21.1637 9.13443 21.4281 8.65591C21.6924 8.17284 22.0752 7.79003 22.5765 7.50748C23.0778 7.22037 23.6816 7.07681 24.388 7.07681C25.0534 7.07681 25.6185 7.18847 26.0833 7.41177C26.5482 7.63508 26.9014 7.95181 27.1429 8.36197C27.389 8.77213 27.512 9.25748 27.512 9.81802C27.512 10.1279 27.4619 10.4355 27.3617 10.7409C27.2614 11.0462 27.1178 11.3516 26.931 11.6569C26.7487 11.9577 26.5322 12.2607 26.2816 12.5661C26.0309 12.8669 25.7552 13.1722 25.4544 13.4821L23.3011 15.8542H27.8949ZM29.3102 16.3463C29.3102 16.0911 29.3968 15.8769 29.57 15.7038C29.7432 15.526 29.9779 15.4372 30.2741 15.4372C30.5749 15.4372 30.8096 15.526 30.9782 15.7038C31.1514 15.8769 31.238 16.0911 31.238 16.3463C31.238 16.6016 31.1514 16.8157 30.9782 16.9889C30.8096 17.1621 30.5749 17.2487 30.2741 17.2487C29.9779 17.2487 29.7432 17.1621 29.57 16.9889C29.3968 16.8157 29.3102 16.6016 29.3102 16.3463ZM29.3171 10.5221C29.3171 10.2669 29.4037 10.0527 29.5768 9.87955C29.75 9.70181 29.9847 9.61295 30.2809 9.61295C30.5817 9.61295 30.8164 9.70181 30.985 9.87955C31.1582 10.0527 31.2448 10.2669 31.2448 10.5221C31.2448 10.7773 31.1582 10.9915 30.985 11.1647C30.8164 11.3379 30.5817 11.4245 30.2809 11.4245C29.9847 11.4245 29.75 11.3379 29.5768 11.1647C29.4037 10.9915 29.3171 10.7773 29.3171 10.5221ZM34.834 11.445H35.8184C36.2012 11.445 36.5179 11.3789 36.7686 11.2467C37.0238 11.1146 37.2129 10.9323 37.3359 10.6999C37.459 10.4674 37.5205 10.2008 37.5205 9.90005C37.5205 9.5856 37.4635 9.31672 37.3496 9.09341C37.2402 8.86555 37.0716 8.69009 36.8438 8.56705C36.6205 8.444 36.3356 8.38248 35.9893 8.38248C35.6976 8.38248 35.4333 8.44172 35.1963 8.56021C34.9639 8.67414 34.7793 8.83821 34.6426 9.0524C34.5059 9.26203 34.4375 9.51269 34.4375 9.80435H32.7832C32.7832 9.27571 32.9222 8.8063 33.2002 8.39615C33.4782 7.98599 33.8565 7.6647 34.335 7.43228C34.818 7.1953 35.3604 7.07681 35.9619 7.07681C36.6045 7.07681 37.165 7.18391 37.6436 7.3981C38.1266 7.60774 38.5026 7.92219 38.7715 8.34146C39.0404 8.76073 39.1748 9.28026 39.1748 9.90005C39.1748 10.1826 39.1087 10.4697 38.9766 10.7614C38.8444 11.053 38.6484 11.3197 38.3887 11.5612C38.1289 11.7982 37.8053 11.9919 37.418 12.1422C37.0306 12.2881 36.5817 12.361 36.0713 12.361H34.834V11.445ZM34.834 12.7301V11.8278H36.0713C36.6546 11.8278 37.1514 11.8961 37.5615 12.0329C37.9762 12.1696 38.3135 12.3587 38.5732 12.6003C38.833 12.8372 39.0221 13.1084 39.1406 13.4137C39.2637 13.7191 39.3252 14.0426 39.3252 14.3844C39.3252 14.8493 39.2409 15.264 39.0723 15.6286C38.9082 15.9886 38.6735 16.2939 38.3682 16.5446C38.0628 16.7952 37.7051 16.9844 37.2949 17.112C36.8893 17.2396 36.4473 17.3034 35.9688 17.3034C35.5404 17.3034 35.1302 17.2441 34.7383 17.1256C34.3464 17.0072 33.9955 16.8317 33.6856 16.5993C33.3757 16.3623 33.1296 16.0683 32.9473 15.7174C32.7695 15.362 32.6807 14.9518 32.6807 14.487H34.3281C34.3281 14.7832 34.3965 15.0452 34.5332 15.2731C34.6745 15.4964 34.8705 15.6719 35.1211 15.7995C35.3763 15.9271 35.668 15.9909 35.9961 15.9909C36.3425 15.9909 36.641 15.9294 36.8916 15.8063C37.1423 15.6833 37.3337 15.501 37.4658 15.2594C37.6025 15.0179 37.6709 14.7262 37.6709 14.3844C37.6709 13.9971 37.5957 13.6826 37.4453 13.4411C37.2949 13.1995 37.0807 13.0218 36.8027 12.9079C36.5247 12.7894 36.1966 12.7301 35.8184 12.7301H34.834ZM47.3578 11.3561V12.9831C47.3578 13.7624 47.2803 14.4277 47.1253 14.9792C46.9749 15.526 46.7562 15.9704 46.4691 16.3122C46.182 16.654 45.8379 16.9046 45.4369 17.0641C45.0404 17.2236 44.596 17.3034 44.1039 17.3034C43.7119 17.3034 43.3473 17.2532 43.0101 17.153C42.6774 17.0527 42.3766 16.8955 42.1078 16.6813C41.8389 16.4671 41.6087 16.1914 41.4173 15.8542C41.2305 15.5124 41.0846 15.1045 40.9798 14.6305C40.8796 14.1566 40.8294 13.6074 40.8294 12.9831V11.3561C40.8294 10.5723 40.9069 9.91145 41.0619 9.37369C41.2168 8.83137 41.4378 8.39159 41.7249 8.05435C42.0121 7.71255 42.3539 7.46418 42.7503 7.30923C43.1514 7.15429 43.598 7.07681 44.0902 7.07681C44.4867 7.07681 44.8512 7.12694 45.1839 7.2272C45.5212 7.32291 45.822 7.47558 46.0863 7.68521C46.3552 7.89485 46.583 8.16828 46.7699 8.50552C46.9613 8.83821 47.1071 9.24153 47.2074 9.71548C47.3076 10.1849 47.3578 10.7318 47.3578 11.3561ZM45.7103 13.2155V11.11C45.7103 10.7135 45.6875 10.3649 45.6419 10.0641C45.5964 9.75878 45.528 9.50129 45.4369 9.29166C45.3503 9.07746 45.2409 8.90429 45.1087 8.77213C44.9766 8.63541 44.8262 8.53742 44.6576 8.47818C44.4889 8.41438 44.2998 8.38248 44.0902 8.38248C43.835 8.38248 43.6071 8.43261 43.4066 8.53287C43.2061 8.62857 43.0374 8.78352 42.9007 8.99771C42.764 9.2119 42.6592 9.49446 42.5863 9.84537C42.5179 10.1917 42.4837 10.6133 42.4837 11.11V13.2155C42.4837 13.6165 42.5065 13.9697 42.5521 14.2751C42.5977 14.5804 42.666 14.8424 42.7572 15.0612C42.8483 15.2754 42.9577 15.4531 43.0853 15.5944C43.2175 15.7311 43.3678 15.8314 43.5365 15.8952C43.7096 15.959 43.8988 15.9909 44.1039 15.9909C44.3636 15.9909 44.5938 15.9407 44.7943 15.8405C44.9948 15.7402 45.1634 15.5807 45.3001 15.362C45.4369 15.1387 45.5394 14.8493 45.6078 14.4938C45.6761 14.1383 45.7103 13.7122 45.7103 13.2155Z" fill="#170E2B"/>
</svg>
