<svg width="17" height="18" viewBox="0 0 17 18" fill="none" xmlns="http://www.w3.org/2000/svg">
<path fill-rule="evenodd" clip-rule="evenodd" d="M8.5 0.0673828C8.8912 0.0673828 9.20833 0.384514 9.20833 0.775716V2.19238C9.20833 2.58358 8.8912 2.90072 8.5 2.90072C8.1088 2.90072 7.79167 2.58358 7.79167 2.19238V0.775716C7.79167 0.384514 8.1088 0.0673828 8.5 0.0673828ZM2.4883 2.55568C2.76492 2.27906 3.21341 2.27906 3.49003 2.55568L4.49587 3.56152C4.77249 3.83814 4.77249 4.28663 4.49587 4.56325C4.21925 4.83987 3.77075 4.83987 3.49413 4.56325L2.4883 3.55742C2.21168 3.2808 2.21168 2.8323 2.4883 2.55568ZM14.5117 2.55568C14.7883 2.8323 14.7883 3.2808 14.5117 3.55742L13.5059 4.56325C13.2292 4.83987 12.7808 4.83987 12.5041 4.56325C12.2275 4.28663 12.2275 3.83814 12.5041 3.56152L13.51 2.55568C13.7866 2.27906 14.2351 2.27906 14.5117 2.55568ZM8.5 5.73405C6.93519 5.73405 5.66667 7.00258 5.66667 8.56738C5.66667 10.1322 6.93519 11.4007 8.5 11.4007C10.0648 11.4007 11.3333 10.1322 11.3333 8.56738C11.3333 7.00258 10.0648 5.73405 8.5 5.73405ZM4.25 8.56738C4.25 6.22017 6.15279 4.31738 8.5 4.31738C10.8472 4.31738 12.75 6.22017 12.75 8.56738C12.75 10.9146 10.8472 12.8174 8.5 12.8174C6.15279 12.8174 4.25 10.9146 4.25 8.56738ZM0 8.56738C0 8.17618 0.317132 7.85905 0.708333 7.85905H2.125C2.5162 7.85905 2.83333 8.17618 2.83333 8.56738C2.83333 8.95858 2.5162 9.27572 2.125 9.27572H0.708333C0.317132 9.27572 0 8.95858 0 8.56738ZM14.1667 8.56738C14.1667 8.17618 14.4838 7.85905 14.875 7.85905H16.2917C16.6829 7.85905 17 8.17618 17 8.56738C17 8.95858 16.6829 9.27572 16.2917 9.27572H14.875C14.4838 9.27572 14.1667 8.95858 14.1667 8.56738ZM4.49587 12.5715C4.77249 12.8481 4.77249 13.2966 4.49587 13.5733L3.49003 14.5791C3.21341 14.8557 2.76492 14.8557 2.4883 14.5791C2.21168 14.3025 2.21168 13.854 2.4883 13.5773L3.49413 12.5715C3.77075 12.2949 4.21925 12.2949 4.49587 12.5715ZM12.5041 12.5715C12.7808 12.2949 13.2292 12.2949 13.5059 12.5715L14.5117 13.5773C14.7883 13.854 14.7883 14.3025 14.5117 14.5791C14.2351 14.8557 13.7866 14.8557 13.51 14.5791L12.5041 13.5733C12.2275 13.2966 12.2275 12.8481 12.5041 12.5715ZM8.5 14.234C8.8912 14.234 9.20833 14.5512 9.20833 14.9424V16.359C9.20833 16.7502 8.8912 17.0674 8.5 17.0674C8.1088 17.0674 7.79167 16.7502 7.79167 16.359V14.9424C7.79167 14.5512 8.1088 14.234 8.5 14.234Z" fill="#050505"/>
</svg>
